Coordinates
version=1
nRows=8
nColumns=42
inDegrees=yes

Units are S.I. units (second, meters, Newtons, ...)
If the header above contains a line with 'inDegrees', this indicates whether rotational values are in degrees (yes) or radians (no).

endheader
time	pelvis_tilt	pelvis_list	pelvis_rotation	pelvis_tx	pelvis_ty	pelvis_tz	hip_flexion_r	hip_adduction_r	hip_rotation_r	knee_angle_r	knee_adduction_r	knee_angle_r_beta	ankle_angle_r	subtalar_angle_r	mtp_angle_r	hip_flexion_l	hip_adduction_l	hip_rotation_l	knee_angle_l	knee_adduction_l	knee_angle_l_beta	ankle_angle_l	subtalar_angle_l	mtp_angle_l	lumbar_extension	lumbar_bending	lumbar_rotation	arm_flex_r	arm_add_r	arm_rot_r	elbow_flex_r	pro_sup_r	wrist_flex_r	wrist_dev_r	arm_flex_l	arm_add_l	arm_rot_l	elbow_flex_l	pro_sup_l	wrist_flex_l	wrist_dev_l
      4.25000000	     12.74926356	      0.47114077	      3.17284918	      0.20148202	      0.88501035	     -0.14009353	     -6.94298625	      2.01665912	    -21.49796358	     27.53636565	     -2.09210639	      0.48060024	     25.82913378	     31.96023090	     -7.50167548	     15.70126125	     -2.33102506	     -7.67285023	     31.49797706	     -3.77217164	      0.54974341	     12.33144964	     17.54088829	     -7.50167548	    -30.89481474	      4.52255818	     -2.97677783	      6.45294791	    -11.65413797	     -2.91225074	     49.85399267	     90.00000001	      0.00000000	      0.00000000	     13.97733436	     -9.71609409	     25.54736255	     51.21090727	     90.00000001	      0.00000000	      0.00000000
      4.26000000	     12.76712547	      0.42521825	      3.17606609	      0.20438228	      0.88458145	     -0.14027854	     -7.14559353	      2.05408880	    -21.41703863	     27.64360851	     -2.06970097	      0.48247199	     25.81734047	     31.82873434	     -7.50166753	     16.00693454	     -2.30858809	     -7.79328544	     31.34332822	     -3.62247498	      0.54704428	     12.33060307	     17.53149500	     -7.50166753	    -30.84449556	      4.58476658	     -3.01825429	      6.36532962	    -11.73587664	     -2.90452276	     49.80754006	     90.00000001	      0.00000000	      0.00000000	     13.98037979	     -9.73878513	     25.49072586	     51.23515124	     90.00000001	      0.00000000	      0.00000000
      4.27000000	     13.04049842	      0.49191213	      3.06798048	      0.20760348	      0.88476235	     -0.14039553	     -7.78384911	      1.93955265	    -21.16546045	     27.52392984	     -1.85079997	      0.48038320	     26.14377586	     31.59656596	     -7.50162270	     15.73854230	     -2.14304052	     -8.10061638	     30.68634433	     -3.60783879	      0.53557774	     12.36377921	     18.27427144	     -7.50162270	    -31.04900371	      4.51089157	     -3.11244580	      6.46286609	    -11.86093170	     -2.48233369	     49.33215986	     90.00000001	      0.00000000	      0.00000000	     13.89454620	     -9.71059917	     25.08453830	     51.18581106	     90.00000001	      0.00000000	      0.00000000
      4.28000000	     13.11262522	      0.41072072	      3.09600386	      0.21067582	      0.88447208	     -0.14069943	     -8.11193556	      2.01881316	    -21.20971458	     27.49212285	     -1.84307234	      0.47982806	     26.29781775	     31.64081666	     -7.50161530	     15.87851214	     -2.12968996	     -8.14666766	     30.43578081	     -3.46439569	      0.53120459	     12.41033422	     18.35933148	     -7.50161530	    -31.04576909	      4.64135034	     -3.17812205	      6.41018200	    -11.95943851	     -2.46278017	     49.15998486	     90.00000001	      0.00000000	      0.00000000	     13.90036627	     -9.71557716	     25.07708022	     51.12605832	     90.00000001	      0.00000000	      0.00000000
      4.29000000	     13.12584160	      0.35840459	      3.11529552	      0.21369307	      0.88405703	     -0.14098540	     -8.34008924	      2.06557460	    -21.19962615	     27.54774675	     -1.83812435	      0.48079888	     26.32134506	     31.59775097	     -7.50161060	     16.10639709	     -2.09412127	     -8.23839427	     30.30277090	     -3.32023467	      0.52888312	     12.41997591	     18.34299180	     -7.50161060	    -31.00152244	      4.73114121	     -3.22086086	      6.34512903	    -12.04615794	     -2.46713174	     49.07749699	     90.00000001	      0.00000000	      0.00000000	     13.88892549	     -9.70421786	     25.06311689	     51.13219274	     90.00000001	      0.00000000	      0.00000000
      4.30000000	     13.27810101	      0.28692760	      3.13830947	      0.21679055	      0.88393404	     -0.14127662	     -8.79353997	      2.13429143	    -21.31363682	     27.44780101	     -1.81953142	      0.47905450	     26.61214661	     31.80012991	     -7.50160761	     16.05634952	     -2.06231259	     -8.23603894	     29.96488934	     -3.16498477	      0.52298598	     12.45897257	     18.50391229	     -7.50160761	    -31.11647454	      4.84136191	     -3.29678572	      6.42635072	    -12.12273180	     -2.38015843	     48.63999797	     90.00000001	      0.00000000	      0.00000000	     13.87565254	     -9.70652196	     25.05711792	     51.03335220	     90.00000001	      0.00000000	      0.00000000
      4.31000000	     13.28201699	      0.22706704	      3.13640186	      0.21991345	      0.88349119	     -0.14162810	     -9.03341141	      2.16212546	    -21.35508399	     27.47265076	     -1.79401218	      0.47948821	     26.66368214	     31.79292751	     -7.50160384	     16.21291798	     -2.03494349	     -8.38118586	     29.81454834	     -3.02581034	      0.52036203	     12.46874694	     18.47827564	     -7.50160384	    -31.05226378	      4.94168967	     -3.34712390	      6.39203438	    -12.23644525	     -2.37851115	     48.50111129	     90.00000001	      0.00000000	      0.00000000	     13.86224397	     -9.69055262	     25.04522010	     51.03918781	     90.00000001	      0.00000000	      0.00000000
      4.32000000	     13.29031135	      0.16076938	      3.12446708	      0.22294422	      0.88304196	     -0.14198733	     -9.26008735	      2.19798260	    -21.38436624	     27.50609135	     -1.78344897	      0.48007186	     26.73587604	     31.79951787	     -7.50160088	     16.34664779	     -2.00019034	     -8.51917134	     29.67237307	     -2.90925704	      0.51788061	     12.47471708	     18.44908098	     -7.50160088	    -31.03420030	      5.04395926	     -3.37302397	      6.39502531	    -12.34240585	     -2.37128453	     48.33923385	     90.00000001	      0.00000000	      0.00000000	     13.85318602	     -9.67769230	     25.03711381	     51.03387573	     90.00000001	      0.00000000	      0.00000000
